<svg width="1079" height="14" viewBox="0 0 1079 14" fill="none" xmlns="http://www.w3.org/2000/svg">
<path d="M1 7C8.18 -1 15.36 -1 22.54 7C29.72 15 36.9 15 44.08 7C51.26 -1 58.44 -1 65.62 7C72.8 15 79.98 15 87.16 7C94.34 -1 101.52 -1 108.7 7C115.88 15 123.06 15 130.24 7C137.42 -1 144.6 -1 151.78 7C158.96 15 166.14 15 173.32 7C180.5 -1 187.68 -1 194.86 7C202.04 15 209.22 15 216.4 7C223.58 -1 230.76 -1 237.94 7C245.12 15 252.3 15 259.48 7C266.66 -1 273.84 -1 281.02 7C288.2 15 295.38 15 302.56 7C309.74 -1 316.92 -1 324.1 7C331.28 15 338.46 15 345.64 7C352.82 -1 360 -1 367.18 7C374.36 15 381.54 15 388.72 7C395.9 -1 403.08 -1 410.26 7C417.44 15 424.62 15 431.8 7C438.98 -1 446.16 -1 453.34 7C460.52 15 467.7 15 474.88 7C482.06 -1 489.24 -1 496.42 7C503.6 15 510.78 15 517.96 7C525.14 -1 532.32 -1 539.5 7C546.68 15 553.86 15 561.04 7C568.22 -1 575.4 -1 582.58 7C589.76 15 596.94 15 604.12 7C611.3 -1 618.48 -1 625.66 7C632.84 15 640.02 15 647.2 7C654.38 -1 661.56 -1 668.74 7C675.92 15 683.1 15 690.28 7C697.46 -1 704.64 -1 711.82 7C719 15 726.18 15 733.36 7C740.54 -1 747.72 -1 754.9 7C762.08 15 769.26 15 776.44 7C783.62 -1 790.8 -1 797.98 7C805.16 15 812.34 15 819.52 7C826.7 -1 833.88 -1 841.06 7C848.24 15 855.42 15 862.6 7C869.78 -1 876.96 -1 884.14 7C891.32 15 898.5 15 905.68 7C912.86 -1 920.04 -1 927.22 7C934.4 15 941.58 15 948.76 7C955.94 -1 963.12 -1 970.3 7C977.48 15 984.66 15 991.84 7C999.02 -1 1006.2 -1 1013.38 7C1020.56 15 1027.74 15 1034.92 7C1042.1 -1 1049.28 -1 1056.46 7C1063.64 15 1070.82 15 1078 7" stroke="#ACADBD" stroke-width="2"/>
</svg>
